<mxfile host="app.diagrams.net" modified="2022-02-21T09:50:33.187Z" agent="5.0 (Windows NT 10.0; Win64; x64) AppleWebKit/537.36 (KHTML, like Gecko) Chrome/98.0.4758.102 Safari/537.36" etag="7AOSZJlLwFthq44G0PD8" version="16.6.1" type="github" pages="2">
  <diagram id="BPLX_zdH6N8bo_xgpreE" name="Page-1">
    <mxGraphModel dx="2153" dy="1181" grid="1" gridSize="10" guides="1" tooltips="1" connect="1" arrows="1" fold="1" page="1" pageScale="1" pageWidth="827" pageHeight="1169" math="0" shadow="0">
      <root>
        <mxCell id="0" />
        <mxCell id="1" parent="0" />
        <mxCell id="DFOPHjx_0iZKddiR_Eg2-2" value="" style="rounded=1;whiteSpace=wrap;html=1;" parent="1" vertex="1">
          <mxGeometry x="20" y="100" width="90" height="480" as="geometry" />
        </mxCell>
        <mxCell id="DFOPHjx_0iZKddiR_Eg2-3" value="产线" style="text;html=1;strokeColor=none;fillColor=none;align=center;verticalAlign=middle;whiteSpace=wrap;rounded=0;" parent="1" vertex="1">
          <mxGeometry x="35" y="110" width="60" height="30" as="geometry" />
        </mxCell>
        <mxCell id="DFOPHjx_0iZKddiR_Eg2-4" value="" style="rounded=1;whiteSpace=wrap;html=1;" parent="1" vertex="1">
          <mxGeometry x="230" y="310" width="120" height="110" as="geometry" />
        </mxCell>
        <mxCell id="DFOPHjx_0iZKddiR_Eg2-5" value="盒子" style="text;html=1;strokeColor=none;fillColor=none;align=center;verticalAlign=middle;whiteSpace=wrap;rounded=0;" parent="1" vertex="1">
          <mxGeometry x="260" y="320" width="60" height="30" as="geometry" />
        </mxCell>
        <mxCell id="DFOPHjx_0iZKddiR_Eg2-10" value="" style="endArrow=classic;html=1;rounded=0;elbow=vertical;exitX=1.007;exitY=0.478;exitDx=0;exitDy=0;exitPerimeter=0;entryX=0.001;entryY=0.162;entryDx=0;entryDy=0;entryPerimeter=0;" parent="1" source="DFOPHjx_0iZKddiR_Eg2-2" target="DFOPHjx_0iZKddiR_Eg2-4" edge="1">
          <mxGeometry width="50" height="50" relative="1" as="geometry">
            <mxPoint x="120" y="370" as="sourcePoint" />
            <mxPoint x="260" y="340" as="targetPoint" />
          </mxGeometry>
        </mxCell>
        <mxCell id="DFOPHjx_0iZKddiR_Eg2-13" value="震动" style="edgeLabel;html=1;align=center;verticalAlign=middle;resizable=0;points=[];" parent="DFOPHjx_0iZKddiR_Eg2-10" vertex="1" connectable="0">
          <mxGeometry x="0.0914" y="2" relative="1" as="geometry">
            <mxPoint as="offset" />
          </mxGeometry>
        </mxCell>
        <mxCell id="DFOPHjx_0iZKddiR_Eg2-11" value="" style="endArrow=classic;html=1;rounded=0;elbow=vertical;exitX=1.002;exitY=0.542;exitDx=0;exitDy=0;exitPerimeter=0;" parent="1" source="DFOPHjx_0iZKddiR_Eg2-2" edge="1">
          <mxGeometry width="50" height="50" relative="1" as="geometry">
            <mxPoint x="120" y="410" as="sourcePoint" />
            <mxPoint x="230" y="363" as="targetPoint" />
          </mxGeometry>
        </mxCell>
        <mxCell id="DFOPHjx_0iZKddiR_Eg2-14" value="温度" style="edgeLabel;html=1;align=center;verticalAlign=middle;resizable=0;points=[];" parent="DFOPHjx_0iZKddiR_Eg2-11" vertex="1" connectable="0">
          <mxGeometry x="0.1224" y="-2" relative="1" as="geometry">
            <mxPoint as="offset" />
          </mxGeometry>
        </mxCell>
        <mxCell id="DFOPHjx_0iZKddiR_Eg2-16" value="" style="endArrow=classic;html=1;rounded=0;elbow=vertical;exitX=0.993;exitY=0.635;exitDx=0;exitDy=0;exitPerimeter=0;entryX=-0.022;entryY=0.846;entryDx=0;entryDy=0;entryPerimeter=0;" parent="1" source="DFOPHjx_0iZKddiR_Eg2-2" target="DFOPHjx_0iZKddiR_Eg2-4" edge="1">
          <mxGeometry width="50" height="50" relative="1" as="geometry">
            <mxPoint x="150" y="460" as="sourcePoint" />
            <mxPoint x="200" y="410" as="targetPoint" />
          </mxGeometry>
        </mxCell>
        <mxCell id="DFOPHjx_0iZKddiR_Eg2-17" value="转速" style="edgeLabel;html=1;align=center;verticalAlign=middle;resizable=0;points=[];" parent="DFOPHjx_0iZKddiR_Eg2-16" vertex="1" connectable="0">
          <mxGeometry x="0.2226" y="-1" relative="1" as="geometry">
            <mxPoint as="offset" />
          </mxGeometry>
        </mxCell>
        <mxCell id="DFOPHjx_0iZKddiR_Eg2-19" value="" style="rounded=1;whiteSpace=wrap;html=1;" parent="1" vertex="1">
          <mxGeometry x="390" y="100" width="420" height="580" as="geometry" />
        </mxCell>
        <mxCell id="DFOPHjx_0iZKddiR_Eg2-21" value="现场服务器" style="text;html=1;strokeColor=none;fillColor=none;align=center;verticalAlign=middle;whiteSpace=wrap;rounded=0;" parent="1" vertex="1">
          <mxGeometry x="560" y="120" width="70" height="30" as="geometry" />
        </mxCell>
        <mxCell id="DFOPHjx_0iZKddiR_Eg2-22" value="java-udp" style="rounded=0;whiteSpace=wrap;html=1;" parent="1" vertex="1">
          <mxGeometry x="460" y="180" width="120" height="60" as="geometry" />
        </mxCell>
        <mxCell id="DFOPHjx_0iZKddiR_Eg2-24" value="redis" style="shape=cylinder3;whiteSpace=wrap;html=1;boundedLbl=1;backgroundOutline=1;size=15;" parent="1" vertex="1">
          <mxGeometry x="680" y="230" width="60" height="80" as="geometry" />
        </mxCell>
        <mxCell id="DFOPHjx_0iZKddiR_Eg2-42" style="rounded=0;orthogonalLoop=1;jettySize=auto;html=1;elbow=vertical;entryX=0;entryY=0.25;entryDx=0;entryDy=0;fillColor=#dae8fc;strokeColor=#6c8ebf;exitX=1;exitY=0;exitDx=0;exitDy=27.5;exitPerimeter=0;" parent="1" source="DFOPHjx_0iZKddiR_Eg2-25" target="DFOPHjx_0iZKddiR_Eg2-26" edge="1">
          <mxGeometry relative="1" as="geometry" />
        </mxCell>
        <mxCell id="DFOPHjx_0iZKddiR_Eg2-25" value="mongod" style="shape=cylinder3;whiteSpace=wrap;html=1;boundedLbl=1;backgroundOutline=1;size=15;" parent="1" vertex="1">
          <mxGeometry x="470" y="490" width="60" height="80" as="geometry" />
        </mxCell>
        <mxCell id="DFOPHjx_0iZKddiR_Eg2-44" style="rounded=0;orthogonalLoop=1;jettySize=auto;html=1;elbow=vertical;fillColor=#dae8fc;strokeColor=#6c8ebf;entryX=0.099;entryY=0.597;entryDx=0;entryDy=0;entryPerimeter=0;" parent="1" source="DFOPHjx_0iZKddiR_Eg2-26" target="DFOPHjx_0iZKddiR_Eg2-30" edge="1">
          <mxGeometry relative="1" as="geometry">
            <mxPoint x="900" y="520" as="targetPoint" />
          </mxGeometry>
        </mxCell>
        <mxCell id="DFOPHjx_0iZKddiR_Eg2-51" value="数据回传" style="edgeLabel;html=1;align=center;verticalAlign=middle;resizable=0;points=[];" parent="DFOPHjx_0iZKddiR_Eg2-44" vertex="1" connectable="0">
          <mxGeometry x="-0.2453" y="2" relative="1" as="geometry">
            <mxPoint as="offset" />
          </mxGeometry>
        </mxCell>
        <mxCell id="DFOPHjx_0iZKddiR_Eg2-26" value="java-timer" style="rounded=0;whiteSpace=wrap;html=1;" parent="1" vertex="1">
          <mxGeometry x="670" y="500" width="120" height="60" as="geometry" />
        </mxCell>
        <mxCell id="DFOPHjx_0iZKddiR_Eg2-28" value="" style="rounded=1;whiteSpace=wrap;html=1;" parent="1" vertex="1">
          <mxGeometry x="1040" y="150" width="560" height="580" as="geometry" />
        </mxCell>
        <mxCell id="DFOPHjx_0iZKddiR_Eg2-29" value="平台" style="text;html=1;strokeColor=none;fillColor=none;align=center;verticalAlign=middle;whiteSpace=wrap;rounded=0;" parent="1" vertex="1">
          <mxGeometry x="1280" y="180" width="60" height="30" as="geometry" />
        </mxCell>
        <mxCell id="DFOPHjx_0iZKddiR_Eg2-30" value="mqtt" style="ellipse;shape=cloud;whiteSpace=wrap;html=1;" parent="1" vertex="1">
          <mxGeometry x="900" y="480" width="120" height="80" as="geometry" />
        </mxCell>
        <mxCell id="DFOPHjx_0iZKddiR_Eg2-31" value="" style="endArrow=classic;html=1;rounded=0;elbow=vertical;exitX=1;exitY=0.25;exitDx=0;exitDy=0;entryX=0;entryY=0.75;entryDx=0;entryDy=0;fillColor=#fff2cc;strokeColor=#d6b656;" parent="1" source="DFOPHjx_0iZKddiR_Eg2-4" target="DFOPHjx_0iZKddiR_Eg2-22" edge="1">
          <mxGeometry width="50" height="50" relative="1" as="geometry">
            <mxPoint x="320" y="240" as="sourcePoint" />
            <mxPoint x="370" y="190" as="targetPoint" />
          </mxGeometry>
        </mxCell>
        <mxCell id="DFOPHjx_0iZKddiR_Eg2-32" value="温度/转速" style="edgeLabel;html=1;align=center;verticalAlign=middle;resizable=0;points=[];" parent="DFOPHjx_0iZKddiR_Eg2-31" vertex="1" connectable="0">
          <mxGeometry x="0.1496" y="-1" relative="1" as="geometry">
            <mxPoint y="1" as="offset" />
          </mxGeometry>
        </mxCell>
        <mxCell id="DFOPHjx_0iZKddiR_Eg2-33" value="" style="endArrow=classic;html=1;rounded=0;elbow=vertical;exitX=0;exitY=0.75;exitDx=0;exitDy=0;entryX=0.291;entryY=0.001;entryDx=0;entryDy=0;entryPerimeter=0;fillColor=#fff2cc;strokeColor=#d6b656;" parent="1" source="DFOPHjx_0iZKddiR_Eg2-22" target="DFOPHjx_0iZKddiR_Eg2-25" edge="1">
          <mxGeometry width="50" height="50" relative="1" as="geometry">
            <mxPoint x="490" y="300" as="sourcePoint" />
            <mxPoint x="540" y="250" as="targetPoint" />
          </mxGeometry>
        </mxCell>
        <mxCell id="DFOPHjx_0iZKddiR_Eg2-34" value="震动(1-50包)" style="endArrow=classic;html=1;rounded=0;elbow=vertical;exitX=1.013;exitY=0.601;exitDx=0;exitDy=0;exitPerimeter=0;entryX=0.5;entryY=1;entryDx=0;entryDy=0;fillColor=#e1d5e7;strokeColor=#9673a6;" parent="1" source="DFOPHjx_0iZKddiR_Eg2-4" target="DFOPHjx_0iZKddiR_Eg2-22" edge="1">
          <mxGeometry width="50" height="50" relative="1" as="geometry">
            <mxPoint x="420" y="430" as="sourcePoint" />
            <mxPoint x="470" y="380" as="targetPoint" />
          </mxGeometry>
        </mxCell>
        <mxCell id="DFOPHjx_0iZKddiR_Eg2-35" value="" style="endArrow=classic;html=1;rounded=0;elbow=vertical;exitX=0.5;exitY=1;exitDx=0;exitDy=0;entryX=0;entryY=0;entryDx=0;entryDy=27.5;entryPerimeter=0;fillColor=#e1d5e7;strokeColor=#9673a6;" parent="1" source="DFOPHjx_0iZKddiR_Eg2-22" target="DFOPHjx_0iZKddiR_Eg2-24" edge="1">
          <mxGeometry width="50" height="50" relative="1" as="geometry">
            <mxPoint x="580" y="310" as="sourcePoint" />
            <mxPoint x="630" y="260" as="targetPoint" />
          </mxGeometry>
        </mxCell>
        <mxCell id="DFOPHjx_0iZKddiR_Eg2-36" value="震动(1-49包)" style="edgeLabel;html=1;align=center;verticalAlign=middle;resizable=0;points=[];" parent="DFOPHjx_0iZKddiR_Eg2-35" vertex="1" connectable="0">
          <mxGeometry x="0.1576" relative="1" as="geometry">
            <mxPoint as="offset" />
          </mxGeometry>
        </mxCell>
        <mxCell id="DFOPHjx_0iZKddiR_Eg2-37" value="" style="endArrow=classic;html=1;rounded=0;elbow=vertical;exitX=0.5;exitY=1;exitDx=0;exitDy=0;entryX=0.855;entryY=0.04;entryDx=0;entryDy=0;entryPerimeter=0;fillColor=#e1d5e7;strokeColor=#9673a6;" parent="1" source="DFOPHjx_0iZKddiR_Eg2-22" target="DFOPHjx_0iZKddiR_Eg2-25" edge="1">
          <mxGeometry width="50" height="50" relative="1" as="geometry">
            <mxPoint x="530" y="230" as="sourcePoint" />
            <mxPoint x="720" y="340" as="targetPoint" />
          </mxGeometry>
        </mxCell>
        <mxCell id="DFOPHjx_0iZKddiR_Eg2-39" value="50包" style="edgeLabel;html=1;align=center;verticalAlign=middle;resizable=0;points=[];" parent="DFOPHjx_0iZKddiR_Eg2-37" vertex="1" connectable="0">
          <mxGeometry x="-0.469" y="1" relative="1" as="geometry">
            <mxPoint as="offset" />
          </mxGeometry>
        </mxCell>
        <mxCell id="DFOPHjx_0iZKddiR_Eg2-41" value="完整1-50包" style="edgeLabel;html=1;align=center;verticalAlign=middle;resizable=0;points=[];" parent="DFOPHjx_0iZKddiR_Eg2-37" vertex="1" connectable="0">
          <mxGeometry x="0.4113" y="1" relative="1" as="geometry">
            <mxPoint as="offset" />
          </mxGeometry>
        </mxCell>
        <mxCell id="DFOPHjx_0iZKddiR_Eg2-38" value="" style="endArrow=classic;html=1;rounded=0;elbow=vertical;exitX=-0.001;exitY=0.575;exitDx=0;exitDy=0;exitPerimeter=0;fillColor=#e1d5e7;strokeColor=#9673a6;" parent="1" source="DFOPHjx_0iZKddiR_Eg2-24" edge="1">
          <mxGeometry width="50" height="50" relative="1" as="geometry">
            <mxPoint x="570" y="350" as="sourcePoint" />
            <mxPoint x="520" y="260" as="targetPoint" />
          </mxGeometry>
        </mxCell>
        <mxCell id="DFOPHjx_0iZKddiR_Eg2-40" value="1-49包" style="edgeLabel;html=1;align=center;verticalAlign=middle;resizable=0;points=[];" parent="DFOPHjx_0iZKddiR_Eg2-38" vertex="1" connectable="0">
          <mxGeometry x="0.1547" relative="1" as="geometry">
            <mxPoint as="offset" />
          </mxGeometry>
        </mxCell>
        <mxCell id="DFOPHjx_0iZKddiR_Eg2-45" value="mqtt-java" style="rounded=0;whiteSpace=wrap;html=1;" parent="1" vertex="1">
          <mxGeometry x="1170" y="490" width="120" height="60" as="geometry" />
        </mxCell>
        <mxCell id="DFOPHjx_0iZKddiR_Eg2-46" value="" style="endArrow=classic;html=1;rounded=0;elbow=vertical;exitX=0.923;exitY=0.431;exitDx=0;exitDy=0;exitPerimeter=0;entryX=0;entryY=0.5;entryDx=0;entryDy=0;fillColor=#dae8fc;strokeColor=#6c8ebf;" parent="1" source="DFOPHjx_0iZKddiR_Eg2-30" target="DFOPHjx_0iZKddiR_Eg2-45" edge="1">
          <mxGeometry width="50" height="50" relative="1" as="geometry">
            <mxPoint x="1120" y="460" as="sourcePoint" />
            <mxPoint x="1170" y="410" as="targetPoint" />
          </mxGeometry>
        </mxCell>
        <mxCell id="DFOPHjx_0iZKddiR_Eg2-47" value="" style="endArrow=classic;html=1;rounded=0;elbow=vertical;exitX=0.013;exitY=0.81;exitDx=0;exitDy=0;exitPerimeter=0;entryX=0.96;entryY=0.7;entryDx=0;entryDy=0;entryPerimeter=0;fillColor=#d5e8d4;strokeColor=#82b366;dashed=1;" parent="1" source="DFOPHjx_0iZKddiR_Eg2-45" target="DFOPHjx_0iZKddiR_Eg2-30" edge="1">
          <mxGeometry width="50" height="50" relative="1" as="geometry">
            <mxPoint x="950" y="870" as="sourcePoint" />
            <mxPoint x="1000" y="820" as="targetPoint" />
          </mxGeometry>
        </mxCell>
        <mxCell id="DFOPHjx_0iZKddiR_Eg2-48" value="" style="endArrow=classic;html=1;rounded=0;elbow=vertical;entryX=1.005;entryY=0.683;entryDx=0;entryDy=0;exitX=0.096;exitY=0.745;exitDx=0;exitDy=0;exitPerimeter=0;entryPerimeter=0;fillColor=#d5e8d4;strokeColor=#82b366;dashed=1;" parent="1" source="DFOPHjx_0iZKddiR_Eg2-30" target="DFOPHjx_0iZKddiR_Eg2-26" edge="1">
          <mxGeometry width="50" height="50" relative="1" as="geometry">
            <mxPoint x="940" y="760" as="sourcePoint" />
            <mxPoint x="990" y="710" as="targetPoint" />
          </mxGeometry>
        </mxCell>
        <mxCell id="DFOPHjx_0iZKddiR_Eg2-52" value="消费结果" style="edgeLabel;html=1;align=center;verticalAlign=middle;resizable=0;points=[];" parent="DFOPHjx_0iZKddiR_Eg2-48" vertex="1" connectable="0">
          <mxGeometry x="0.234" y="3" relative="1" as="geometry">
            <mxPoint as="offset" />
          </mxGeometry>
        </mxCell>
        <mxCell id="DFOPHjx_0iZKddiR_Eg2-49" value="" style="endArrow=classic;html=1;rounded=0;elbow=vertical;exitX=0;exitY=0.5;exitDx=0;exitDy=0;entryX=1;entryY=0.5;entryDx=0;entryDy=0;entryPerimeter=0;fillColor=#d5e8d4;strokeColor=#82b366;dashed=1;" parent="1" source="DFOPHjx_0iZKddiR_Eg2-26" target="DFOPHjx_0iZKddiR_Eg2-25" edge="1">
          <mxGeometry width="50" height="50" relative="1" as="geometry">
            <mxPoint x="450" y="520" as="sourcePoint" />
            <mxPoint x="500" y="470" as="targetPoint" />
          </mxGeometry>
        </mxCell>
        <mxCell id="URCBY-Vixx-LX328n1B2-1" value="" style="rounded=1;whiteSpace=wrap;html=1;" vertex="1" parent="1">
          <mxGeometry x="20" y="1389" width="90" height="680" as="geometry" />
        </mxCell>
        <mxCell id="URCBY-Vixx-LX328n1B2-2" value="产线" style="text;html=1;strokeColor=none;fillColor=none;align=center;verticalAlign=middle;whiteSpace=wrap;rounded=0;" vertex="1" parent="1">
          <mxGeometry x="45" y="1429" width="50" height="40" as="geometry" />
        </mxCell>
        <mxCell id="URCBY-Vixx-LX328n1B2-3" value="" style="rounded=1;whiteSpace=wrap;html=1;" vertex="1" parent="1">
          <mxGeometry x="230" y="1599" width="120" height="110" as="geometry" />
        </mxCell>
        <mxCell id="URCBY-Vixx-LX328n1B2-4" value="盒子" style="text;html=1;strokeColor=none;fillColor=none;align=center;verticalAlign=middle;whiteSpace=wrap;rounded=0;" vertex="1" parent="1">
          <mxGeometry x="260" y="1609" width="60" height="30" as="geometry" />
        </mxCell>
        <mxCell id="URCBY-Vixx-LX328n1B2-5" value="" style="endArrow=classic;html=1;rounded=0;elbow=vertical;exitX=1.007;exitY=0.337;exitDx=0;exitDy=0;exitPerimeter=0;entryX=0.001;entryY=0.162;entryDx=0;entryDy=0;entryPerimeter=0;" edge="1" parent="1" source="URCBY-Vixx-LX328n1B2-1" target="URCBY-Vixx-LX328n1B2-3">
          <mxGeometry width="50" height="50" relative="1" as="geometry">
            <mxPoint x="120" y="1659" as="sourcePoint" />
            <mxPoint x="260" y="1629" as="targetPoint" />
          </mxGeometry>
        </mxCell>
        <mxCell id="URCBY-Vixx-LX328n1B2-6" value="震动" style="edgeLabel;html=1;align=center;verticalAlign=middle;resizable=0;points=[];" vertex="1" connectable="0" parent="URCBY-Vixx-LX328n1B2-5">
          <mxGeometry x="0.0914" y="2" relative="1" as="geometry">
            <mxPoint as="offset" />
          </mxGeometry>
        </mxCell>
        <mxCell id="URCBY-Vixx-LX328n1B2-7" value="" style="endArrow=classic;html=1;rounded=0;elbow=vertical;exitX=0.996;exitY=0.387;exitDx=0;exitDy=0;exitPerimeter=0;" edge="1" parent="1" source="URCBY-Vixx-LX328n1B2-1">
          <mxGeometry width="50" height="50" relative="1" as="geometry">
            <mxPoint x="120" y="1699" as="sourcePoint" />
            <mxPoint x="230" y="1652" as="targetPoint" />
          </mxGeometry>
        </mxCell>
        <mxCell id="URCBY-Vixx-LX328n1B2-8" value="温度" style="edgeLabel;html=1;align=center;verticalAlign=middle;resizable=0;points=[];" vertex="1" connectable="0" parent="URCBY-Vixx-LX328n1B2-7">
          <mxGeometry x="0.1224" y="-2" relative="1" as="geometry">
            <mxPoint as="offset" />
          </mxGeometry>
        </mxCell>
        <mxCell id="URCBY-Vixx-LX328n1B2-9" value="" style="endArrow=classic;html=1;rounded=0;elbow=vertical;exitX=1.006;exitY=0.42;exitDx=0;exitDy=0;exitPerimeter=0;entryX=-0.004;entryY=0.692;entryDx=0;entryDy=0;entryPerimeter=0;" edge="1" parent="1" source="URCBY-Vixx-LX328n1B2-1" target="URCBY-Vixx-LX328n1B2-3">
          <mxGeometry width="50" height="50" relative="1" as="geometry">
            <mxPoint x="170" y="1779" as="sourcePoint" />
            <mxPoint x="220" y="1729" as="targetPoint" />
          </mxGeometry>
        </mxCell>
        <mxCell id="URCBY-Vixx-LX328n1B2-10" value="油液" style="edgeLabel;html=1;align=center;verticalAlign=middle;resizable=0;points=[];" vertex="1" connectable="0" parent="URCBY-Vixx-LX328n1B2-9">
          <mxGeometry x="0.1087" y="1" relative="1" as="geometry">
            <mxPoint as="offset" />
          </mxGeometry>
        </mxCell>
        <mxCell id="URCBY-Vixx-LX328n1B2-11" value="" style="endArrow=classic;html=1;rounded=0;elbow=vertical;exitX=0.988;exitY=0.447;exitDx=0;exitDy=0;exitPerimeter=0;entryX=-0.022;entryY=0.846;entryDx=0;entryDy=0;entryPerimeter=0;" edge="1" parent="1" source="URCBY-Vixx-LX328n1B2-1" target="URCBY-Vixx-LX328n1B2-3">
          <mxGeometry width="50" height="50" relative="1" as="geometry">
            <mxPoint x="150" y="1749" as="sourcePoint" />
            <mxPoint x="200" y="1699" as="targetPoint" />
          </mxGeometry>
        </mxCell>
        <mxCell id="URCBY-Vixx-LX328n1B2-12" value="转速" style="edgeLabel;html=1;align=center;verticalAlign=middle;resizable=0;points=[];" vertex="1" connectable="0" parent="URCBY-Vixx-LX328n1B2-11">
          <mxGeometry x="0.2226" y="-1" relative="1" as="geometry">
            <mxPoint as="offset" />
          </mxGeometry>
        </mxCell>
        <mxCell id="URCBY-Vixx-LX328n1B2-13" value="" style="rounded=1;whiteSpace=wrap;html=1;" vertex="1" parent="1">
          <mxGeometry x="390" y="1389" width="420" height="730" as="geometry" />
        </mxCell>
        <mxCell id="URCBY-Vixx-LX328n1B2-14" value="现场服务器" style="text;html=1;strokeColor=none;fillColor=none;align=center;verticalAlign=middle;whiteSpace=wrap;rounded=0;" vertex="1" parent="1">
          <mxGeometry x="560" y="1409" width="70" height="30" as="geometry" />
        </mxCell>
        <mxCell id="URCBY-Vixx-LX328n1B2-15" value="" style="rounded=0;whiteSpace=wrap;html=1;" vertex="1" parent="1">
          <mxGeometry x="490" y="1569" width="120" height="140" as="geometry" />
        </mxCell>
        <mxCell id="URCBY-Vixx-LX328n1B2-16" value="mongod" style="shape=cylinder3;whiteSpace=wrap;html=1;boundedLbl=1;backgroundOutline=1;size=15;" vertex="1" parent="1">
          <mxGeometry x="680" y="1429" width="60" height="80" as="geometry" />
        </mxCell>
        <mxCell id="URCBY-Vixx-LX328n1B2-17" value="" style="rounded=1;whiteSpace=wrap;html=1;" vertex="1" parent="1">
          <mxGeometry x="870" y="1439" width="560" height="580" as="geometry" />
        </mxCell>
        <mxCell id="URCBY-Vixx-LX328n1B2-18" value="平台" style="text;html=1;strokeColor=none;fillColor=none;align=center;verticalAlign=middle;whiteSpace=wrap;rounded=0;" vertex="1" parent="1">
          <mxGeometry x="1280" y="1469" width="60" height="30" as="geometry" />
        </mxCell>
        <mxCell id="URCBY-Vixx-LX328n1B2-19" value="" style="endArrow=classic;html=1;rounded=0;elbow=vertical;exitX=0.992;exitY=0.188;exitDx=0;exitDy=0;entryX=-0.011;entryY=0.366;entryDx=0;entryDy=0;fillColor=#fff2cc;strokeColor=#d6b656;entryPerimeter=0;exitPerimeter=0;" edge="1" parent="1" source="URCBY-Vixx-LX328n1B2-3" target="URCBY-Vixx-LX328n1B2-15">
          <mxGeometry width="50" height="50" relative="1" as="geometry">
            <mxPoint x="320" y="1529" as="sourcePoint" />
            <mxPoint x="370" y="1479" as="targetPoint" />
          </mxGeometry>
        </mxCell>
        <mxCell id="URCBY-Vixx-LX328n1B2-20" value="温度/油液/转速" style="edgeLabel;html=1;align=center;verticalAlign=middle;resizable=0;points=[];" vertex="1" connectable="0" parent="URCBY-Vixx-LX328n1B2-19">
          <mxGeometry x="0.1496" y="-1" relative="1" as="geometry">
            <mxPoint y="1" as="offset" />
          </mxGeometry>
        </mxCell>
        <mxCell id="URCBY-Vixx-LX328n1B2-21" value="" style="endArrow=classic;html=1;rounded=0;elbow=vertical;exitX=1;exitY=0.5;exitDx=0;exitDy=0;entryX=0;entryY=0.5;entryDx=0;entryDy=0;fillColor=#fff2cc;strokeColor=#d6b656;" edge="1" parent="1" source="URCBY-Vixx-LX328n1B2-15" target="URCBY-Vixx-LX328n1B2-24">
          <mxGeometry width="50" height="50" relative="1" as="geometry">
            <mxPoint x="490" y="1589" as="sourcePoint" />
            <mxPoint x="540" y="1539" as="targetPoint" />
          </mxGeometry>
        </mxCell>
        <mxCell id="URCBY-Vixx-LX328n1B2-22" value="http请求" style="edgeLabel;html=1;align=center;verticalAlign=middle;resizable=0;points=[];" vertex="1" connectable="0" parent="URCBY-Vixx-LX328n1B2-21">
          <mxGeometry x="0.3649" y="2" relative="1" as="geometry">
            <mxPoint as="offset" />
          </mxGeometry>
        </mxCell>
        <mxCell id="URCBY-Vixx-LX328n1B2-23" value="震动(1-50包)" style="endArrow=classic;html=1;rounded=0;elbow=vertical;exitX=1.009;exitY=0.707;exitDx=0;exitDy=0;entryX=0;entryY=0.75;entryDx=0;entryDy=0;fillColor=#e1d5e7;strokeColor=#9673a6;exitPerimeter=0;" edge="1" parent="1" source="URCBY-Vixx-LX328n1B2-3" target="URCBY-Vixx-LX328n1B2-15">
          <mxGeometry width="50" height="50" relative="1" as="geometry">
            <mxPoint x="420" y="1719" as="sourcePoint" />
            <mxPoint x="470" y="1669" as="targetPoint" />
          </mxGeometry>
        </mxCell>
        <mxCell id="URCBY-Vixx-LX328n1B2-24" value="mqtt-java" style="rounded=0;whiteSpace=wrap;html=1;" vertex="1" parent="1">
          <mxGeometry x="950" y="1596.5" width="120" height="85" as="geometry" />
        </mxCell>
        <mxCell id="URCBY-Vixx-LX328n1B2-25" value="" style="endArrow=classic;html=1;rounded=0;elbow=vertical;dashed=1;dashPattern=1 2;exitX=0;exitY=0.25;exitDx=0;exitDy=0;entryX=0.994;entryY=0.31;entryDx=0;entryDy=0;entryPerimeter=0;" edge="1" parent="1" source="URCBY-Vixx-LX328n1B2-24" target="URCBY-Vixx-LX328n1B2-15">
          <mxGeometry width="50" height="50" relative="1" as="geometry">
            <mxPoint x="790" y="1619" as="sourcePoint" />
            <mxPoint x="780" y="1549" as="targetPoint" />
          </mxGeometry>
        </mxCell>
        <mxCell id="URCBY-Vixx-LX328n1B2-26" value="失败" style="edgeLabel;html=1;align=center;verticalAlign=middle;resizable=0;points=[];" vertex="1" connectable="0" parent="URCBY-Vixx-LX328n1B2-25">
          <mxGeometry x="-0.3451" y="-3" relative="1" as="geometry">
            <mxPoint as="offset" />
          </mxGeometry>
        </mxCell>
        <mxCell id="URCBY-Vixx-LX328n1B2-27" value="失败" style="endArrow=classic;html=1;rounded=0;dashed=1;dashPattern=1 2;elbow=vertical;exitX=1.02;exitY=0.284;exitDx=0;exitDy=0;entryX=0.423;entryY=1;entryDx=0;entryDy=0;entryPerimeter=0;exitPerimeter=0;" edge="1" parent="1" source="URCBY-Vixx-LX328n1B2-15" target="URCBY-Vixx-LX328n1B2-16">
          <mxGeometry width="50" height="50" relative="1" as="geometry">
            <mxPoint x="680" y="1559" as="sourcePoint" />
            <mxPoint x="730" y="1509" as="targetPoint" />
            <Array as="points">
              <mxPoint x="670" y="1549" />
            </Array>
          </mxGeometry>
        </mxCell>
        <mxCell id="URCBY-Vixx-LX328n1B2-28" value="" style="endArrow=classic;html=1;rounded=0;elbow=vertical;exitX=1;exitY=0.75;exitDx=0;exitDy=0;entryX=0.004;entryY=0.895;entryDx=0;entryDy=0;entryPerimeter=0;fillColor=#e1d5e7;strokeColor=#9673a6;" edge="1" parent="1" source="URCBY-Vixx-LX328n1B2-15" target="URCBY-Vixx-LX328n1B2-24">
          <mxGeometry width="50" height="50" relative="1" as="geometry">
            <mxPoint x="660" y="1709" as="sourcePoint" />
            <mxPoint x="710" y="1659" as="targetPoint" />
          </mxGeometry>
        </mxCell>
        <mxCell id="URCBY-Vixx-LX328n1B2-29" value="" style="endArrow=classic;html=1;rounded=0;dashed=1;dashPattern=1 2;elbow=vertical;exitX=0;exitY=0.75;exitDx=0;exitDy=0;entryX=1;entryY=0.75;entryDx=0;entryDy=0;fillColor=#e1d5e7;strokeColor=#9673a6;" edge="1" parent="1" source="URCBY-Vixx-LX328n1B2-15" target="URCBY-Vixx-LX328n1B2-15">
          <mxGeometry width="50" height="50" relative="1" as="geometry">
            <mxPoint x="510" y="1699" as="sourcePoint" />
            <mxPoint x="560" y="1649" as="targetPoint" />
          </mxGeometry>
        </mxCell>
        <mxCell id="URCBY-Vixx-LX328n1B2-30" value="整合50包数据" style="edgeLabel;html=1;align=center;verticalAlign=middle;resizable=0;points=[];fontColor=#EE99FF;" vertex="1" connectable="0" parent="URCBY-Vixx-LX328n1B2-29">
          <mxGeometry x="-0.0552" y="1" relative="1" as="geometry">
            <mxPoint as="offset" />
          </mxGeometry>
        </mxCell>
        <mxCell id="URCBY-Vixx-LX328n1B2-31" value="" style="endArrow=classic;html=1;rounded=0;dashed=1;dashPattern=1 2;elbow=vertical;exitX=0.982;exitY=0.776;exitDx=0;exitDy=0;exitPerimeter=0;entryX=0.006;entryY=0.089;entryDx=0;entryDy=0;entryPerimeter=0;" edge="1" parent="1" source="URCBY-Vixx-LX328n1B2-16" target="URCBY-Vixx-LX328n1B2-24">
          <mxGeometry width="50" height="50" relative="1" as="geometry">
            <mxPoint x="860" y="1539" as="sourcePoint" />
            <mxPoint x="910" y="1489" as="targetPoint" />
          </mxGeometry>
        </mxCell>
        <mxCell id="URCBY-Vixx-LX328n1B2-32" value="失败数据回传" style="edgeLabel;html=1;align=center;verticalAlign=middle;resizable=0;points=[];" vertex="1" connectable="0" parent="URCBY-Vixx-LX328n1B2-31">
          <mxGeometry x="-0.2153" y="1" relative="1" as="geometry">
            <mxPoint as="offset" />
          </mxGeometry>
        </mxCell>
        <mxCell id="URCBY-Vixx-LX328n1B2-33" value="&lt;font color=&quot;#000000&quot;&gt;java程序&lt;/font&gt;" style="text;html=1;strokeColor=none;fillColor=none;align=center;verticalAlign=middle;whiteSpace=wrap;rounded=0;fontColor=#EE99FF;" vertex="1" parent="1">
          <mxGeometry x="520" y="1579" width="60" height="30" as="geometry" />
        </mxCell>
        <mxCell id="6qOg5I72loWQoDX9JONL-2" value="wincc" style="rounded=1;whiteSpace=wrap;html=1;" vertex="1" parent="1">
          <mxGeometry x="20" y="10" width="120" height="60" as="geometry" />
        </mxCell>
        <mxCell id="6qOg5I72loWQoDX9JONL-3" value="网关" style="rounded=0;whiteSpace=wrap;html=1;" vertex="1" parent="1">
          <mxGeometry x="200" y="100" width="120" height="60" as="geometry" />
        </mxCell>
        <mxCell id="6qOg5I72loWQoDX9JONL-4" value="" style="endArrow=classic;html=1;rounded=0;exitX=1;exitY=0.5;exitDx=0;exitDy=0;entryX=0;entryY=0.5;entryDx=0;entryDy=0;fillColor=#d80073;strokeColor=#A50040;" edge="1" parent="1" source="6qOg5I72loWQoDX9JONL-3" target="DFOPHjx_0iZKddiR_Eg2-22">
          <mxGeometry width="50" height="50" relative="1" as="geometry">
            <mxPoint x="340" y="80" as="sourcePoint" />
            <mxPoint x="390" y="30" as="targetPoint" />
          </mxGeometry>
        </mxCell>
        <mxCell id="6qOg5I72loWQoDX9JONL-5" value="转速" style="edgeLabel;html=1;align=center;verticalAlign=middle;resizable=0;points=[];" vertex="1" connectable="0" parent="6qOg5I72loWQoDX9JONL-4">
          <mxGeometry x="-0.1492" y="3" relative="1" as="geometry">
            <mxPoint as="offset" />
          </mxGeometry>
        </mxCell>
        <mxCell id="6qOg5I72loWQoDX9JONL-6" value="" style="endArrow=classic;html=1;rounded=0;exitX=0;exitY=0.5;exitDx=0;exitDy=0;entryX=0.577;entryY=-0.006;entryDx=0;entryDy=0;entryPerimeter=0;fillColor=#d80073;strokeColor=#A50040;" edge="1" parent="1" source="DFOPHjx_0iZKddiR_Eg2-22" target="DFOPHjx_0iZKddiR_Eg2-25">
          <mxGeometry width="50" height="50" relative="1" as="geometry">
            <mxPoint x="780" y="260" as="sourcePoint" />
            <mxPoint x="830" y="210" as="targetPoint" />
          </mxGeometry>
        </mxCell>
        <mxCell id="6qOg5I72loWQoDX9JONL-7" value="" style="endArrow=classic;html=1;rounded=0;exitX=1;exitY=0.5;exitDx=0;exitDy=0;entryX=0;entryY=0.5;entryDx=0;entryDy=0;fillColor=#d80073;strokeColor=#A50040;" edge="1" parent="1" source="6qOg5I72loWQoDX9JONL-2" target="6qOg5I72loWQoDX9JONL-3">
          <mxGeometry width="50" height="50" relative="1" as="geometry">
            <mxPoint x="309.9999999999998" y="49.999999999999886" as="sourcePoint" />
            <mxPoint x="480" y="205" as="targetPoint" />
          </mxGeometry>
        </mxCell>
        <mxCell id="6qOg5I72loWQoDX9JONL-8" value="转速" style="edgeLabel;html=1;align=center;verticalAlign=middle;resizable=0;points=[];" vertex="1" connectable="0" parent="6qOg5I72loWQoDX9JONL-7">
          <mxGeometry x="-0.1492" y="3" relative="1" as="geometry">
            <mxPoint as="offset" />
          </mxGeometry>
        </mxCell>
        <mxCell id="6qOg5I72loWQoDX9JONL-11" style="rounded=0;orthogonalLoop=1;jettySize=auto;html=1;entryX=0.145;entryY=0;entryDx=0;entryDy=4.35;entryPerimeter=0;exitX=1;exitY=0.5;exitDx=0;exitDy=0;fillColor=#0050ef;strokeColor=#001DBC;" edge="1" parent="1" source="6qOg5I72loWQoDX9JONL-9" target="DFOPHjx_0iZKddiR_Eg2-25">
          <mxGeometry relative="1" as="geometry" />
        </mxCell>
        <mxCell id="6qOg5I72loWQoDX9JONL-9" value="油液" style="rounded=0;whiteSpace=wrap;html=1;" vertex="1" parent="1">
          <mxGeometry x="220" y="460" width="120" height="60" as="geometry" />
        </mxCell>
        <mxCell id="6qOg5I72loWQoDX9JONL-12" value="" style="endArrow=classic;html=1;rounded=0;entryX=0;entryY=0.5;entryDx=0;entryDy=0;fillColor=#0050ef;strokeColor=#001DBC;" edge="1" parent="1" target="6qOg5I72loWQoDX9JONL-9">
          <mxGeometry width="50" height="50" relative="1" as="geometry">
            <mxPoint x="112" y="490" as="sourcePoint" />
            <mxPoint x="200" y="539.54" as="targetPoint" />
          </mxGeometry>
        </mxCell>
      </root>
    </mxGraphModel>
  </diagram>
  <diagram id="3t3OWzbOvQ15XbjgDXnn" name="Page-2">
    <mxGraphModel dx="2153" dy="1181" grid="1" gridSize="10" guides="1" tooltips="1" connect="1" arrows="1" fold="1" page="1" pageScale="1" pageWidth="827" pageHeight="1169" math="0" shadow="0">
      <root>
        <mxCell id="sN5b08nfrMe0N_BmBH08-0" />
        <mxCell id="sN5b08nfrMe0N_BmBH08-1" parent="sN5b08nfrMe0N_BmBH08-0" />
        <mxCell id="xgLqqH-70hBKpaBER36Q-0" value="" style="rounded=1;whiteSpace=wrap;html=1;" parent="sN5b08nfrMe0N_BmBH08-1" vertex="1">
          <mxGeometry x="30" y="275" width="120" height="310" as="geometry" />
        </mxCell>
        <mxCell id="xgLqqH-70hBKpaBER36Q-2" value="" style="rounded=1;whiteSpace=wrap;html=1;" parent="sN5b08nfrMe0N_BmBH08-1" vertex="1">
          <mxGeometry x="240" y="320" width="120" height="110" as="geometry" />
        </mxCell>
        <mxCell id="xgLqqH-70hBKpaBER36Q-3" value="盒子" style="text;html=1;strokeColor=none;fillColor=none;align=center;verticalAlign=middle;whiteSpace=wrap;rounded=0;" parent="sN5b08nfrMe0N_BmBH08-1" vertex="1">
          <mxGeometry x="270" y="330" width="60" height="30" as="geometry" />
        </mxCell>
        <mxCell id="xgLqqH-70hBKpaBER36Q-4" value="" style="endArrow=classic;html=1;rounded=0;elbow=vertical;exitX=1.002;exitY=0.219;exitDx=0;exitDy=0;exitPerimeter=0;entryX=0.001;entryY=0.162;entryDx=0;entryDy=0;entryPerimeter=0;" parent="sN5b08nfrMe0N_BmBH08-1" source="xgLqqH-70hBKpaBER36Q-0" target="xgLqqH-70hBKpaBER36Q-2" edge="1">
          <mxGeometry width="50" height="50" relative="1" as="geometry">
            <mxPoint x="130" y="380" as="sourcePoint" />
            <mxPoint x="270" y="350" as="targetPoint" />
          </mxGeometry>
        </mxCell>
        <mxCell id="xgLqqH-70hBKpaBER36Q-5" value="震动" style="edgeLabel;html=1;align=center;verticalAlign=middle;resizable=0;points=[];" parent="xgLqqH-70hBKpaBER36Q-4" vertex="1" connectable="0">
          <mxGeometry x="0.0914" y="2" relative="1" as="geometry">
            <mxPoint as="offset" />
          </mxGeometry>
        </mxCell>
        <mxCell id="xgLqqH-70hBKpaBER36Q-6" value="" style="endArrow=classic;html=1;rounded=0;elbow=vertical;exitX=1.002;exitY=0.33;exitDx=0;exitDy=0;exitPerimeter=0;" parent="sN5b08nfrMe0N_BmBH08-1" source="xgLqqH-70hBKpaBER36Q-0" edge="1">
          <mxGeometry width="50" height="50" relative="1" as="geometry">
            <mxPoint x="130" y="420" as="sourcePoint" />
            <mxPoint x="240" y="373" as="targetPoint" />
          </mxGeometry>
        </mxCell>
        <mxCell id="xgLqqH-70hBKpaBER36Q-7" value="温度" style="edgeLabel;html=1;align=center;verticalAlign=middle;resizable=0;points=[];" parent="xgLqqH-70hBKpaBER36Q-6" vertex="1" connectable="0">
          <mxGeometry x="0.1224" y="-2" relative="1" as="geometry">
            <mxPoint as="offset" />
          </mxGeometry>
        </mxCell>
        <mxCell id="xgLqqH-70hBKpaBER36Q-10" value="" style="endArrow=classic;html=1;rounded=0;elbow=vertical;exitX=1.002;exitY=0.464;exitDx=0;exitDy=0;exitPerimeter=0;entryX=-0.022;entryY=0.846;entryDx=0;entryDy=0;entryPerimeter=0;" parent="sN5b08nfrMe0N_BmBH08-1" source="xgLqqH-70hBKpaBER36Q-0" target="xgLqqH-70hBKpaBER36Q-2" edge="1">
          <mxGeometry width="50" height="50" relative="1" as="geometry">
            <mxPoint x="160" y="470" as="sourcePoint" />
            <mxPoint x="210" y="420" as="targetPoint" />
          </mxGeometry>
        </mxCell>
        <mxCell id="xgLqqH-70hBKpaBER36Q-11" value="转速" style="edgeLabel;html=1;align=center;verticalAlign=middle;resizable=0;points=[];" parent="xgLqqH-70hBKpaBER36Q-10" vertex="1" connectable="0">
          <mxGeometry x="0.2226" y="-1" relative="1" as="geometry">
            <mxPoint as="offset" />
          </mxGeometry>
        </mxCell>
        <mxCell id="xgLqqH-70hBKpaBER36Q-12" value="" style="rounded=1;whiteSpace=wrap;html=1;" parent="sN5b08nfrMe0N_BmBH08-1" vertex="1">
          <mxGeometry x="400" y="110" width="420" height="470" as="geometry" />
        </mxCell>
        <mxCell id="xgLqqH-70hBKpaBER36Q-13" value="现场服务器" style="text;html=1;strokeColor=none;fillColor=none;align=center;verticalAlign=middle;whiteSpace=wrap;rounded=0;" parent="sN5b08nfrMe0N_BmBH08-1" vertex="1">
          <mxGeometry x="570" y="130" width="70" height="30" as="geometry" />
        </mxCell>
        <mxCell id="xgLqqH-70hBKpaBER36Q-14" value="" style="rounded=0;whiteSpace=wrap;html=1;" parent="sN5b08nfrMe0N_BmBH08-1" vertex="1">
          <mxGeometry x="500" y="290" width="180" height="140" as="geometry" />
        </mxCell>
        <mxCell id="xgLqqH-70hBKpaBER36Q-17" value="mongod" style="shape=cylinder3;whiteSpace=wrap;html=1;boundedLbl=1;backgroundOutline=1;size=15;" parent="sN5b08nfrMe0N_BmBH08-1" vertex="1">
          <mxGeometry x="690" y="150" width="60" height="80" as="geometry" />
        </mxCell>
        <mxCell id="xgLqqH-70hBKpaBER36Q-21" value="" style="rounded=1;whiteSpace=wrap;html=1;" parent="sN5b08nfrMe0N_BmBH08-1" vertex="1">
          <mxGeometry x="880" y="160" width="560" height="580" as="geometry" />
        </mxCell>
        <mxCell id="xgLqqH-70hBKpaBER36Q-22" value="平台" style="text;html=1;strokeColor=none;fillColor=none;align=center;verticalAlign=middle;whiteSpace=wrap;rounded=0;" parent="sN5b08nfrMe0N_BmBH08-1" vertex="1">
          <mxGeometry x="1290" y="190" width="60" height="30" as="geometry" />
        </mxCell>
        <mxCell id="xgLqqH-70hBKpaBER36Q-24" value="" style="endArrow=classic;html=1;rounded=0;elbow=vertical;exitX=1;exitY=0.462;exitDx=0;exitDy=0;fillColor=#fff2cc;strokeColor=#d6b656;exitPerimeter=0;entryX=0;entryY=0.75;entryDx=0;entryDy=0;" parent="sN5b08nfrMe0N_BmBH08-1" source="xgLqqH-70hBKpaBER36Q-2" target="n89y87WjXCXmDJwve2ZT-11" edge="1">
          <mxGeometry width="50" height="50" relative="1" as="geometry">
            <mxPoint x="330" y="250" as="sourcePoint" />
            <mxPoint x="380" y="200" as="targetPoint" />
          </mxGeometry>
        </mxCell>
        <mxCell id="xgLqqH-70hBKpaBER36Q-25" value="温度/油液/转速" style="edgeLabel;html=1;align=center;verticalAlign=middle;resizable=0;points=[];" parent="xgLqqH-70hBKpaBER36Q-24" vertex="1" connectable="0">
          <mxGeometry x="0.1496" y="-1" relative="1" as="geometry">
            <mxPoint y="1" as="offset" />
          </mxGeometry>
        </mxCell>
        <mxCell id="xgLqqH-70hBKpaBER36Q-26" value="" style="endArrow=classic;html=1;rounded=0;elbow=vertical;exitX=1;exitY=0.5;exitDx=0;exitDy=0;entryX=-0.004;entryY=0.281;entryDx=0;entryDy=0;fillColor=#008a00;strokeColor=#005700;entryPerimeter=0;" parent="sN5b08nfrMe0N_BmBH08-1" source="n89y87WjXCXmDJwve2ZT-11" target="xgLqqH-70hBKpaBER36Q-35" edge="1">
          <mxGeometry width="50" height="50" relative="1" as="geometry">
            <mxPoint x="500" y="310" as="sourcePoint" />
            <mxPoint x="550" y="260" as="targetPoint" />
          </mxGeometry>
        </mxCell>
        <mxCell id="xgLqqH-70hBKpaBER36Q-41" value="http请求" style="edgeLabel;html=1;align=center;verticalAlign=middle;resizable=0;points=[];" parent="xgLqqH-70hBKpaBER36Q-26" vertex="1" connectable="0">
          <mxGeometry x="0.3649" y="2" relative="1" as="geometry">
            <mxPoint as="offset" />
          </mxGeometry>
        </mxCell>
        <mxCell id="xgLqqH-70hBKpaBER36Q-27" value="震动(1-50包)" style="endArrow=classic;html=1;rounded=0;elbow=vertical;exitX=1.009;exitY=0.707;exitDx=0;exitDy=0;entryX=0;entryY=1;entryDx=0;entryDy=0;fillColor=#e1d5e7;strokeColor=#9673a6;exitPerimeter=0;" parent="sN5b08nfrMe0N_BmBH08-1" source="xgLqqH-70hBKpaBER36Q-2" target="n89y87WjXCXmDJwve2ZT-11" edge="1">
          <mxGeometry width="50" height="50" relative="1" as="geometry">
            <mxPoint x="430" y="440" as="sourcePoint" />
            <mxPoint x="480" y="390" as="targetPoint" />
          </mxGeometry>
        </mxCell>
        <mxCell id="xgLqqH-70hBKpaBER36Q-35" value="mqtt-java" style="rounded=0;whiteSpace=wrap;html=1;" parent="sN5b08nfrMe0N_BmBH08-1" vertex="1">
          <mxGeometry x="960" y="317.5" width="120" height="182.5" as="geometry" />
        </mxCell>
        <mxCell id="xgLqqH-70hBKpaBER36Q-42" value="" style="endArrow=classic;html=1;rounded=0;elbow=vertical;dashed=1;dashPattern=1 2;exitX=0;exitY=0.147;exitDx=0;exitDy=0;entryX=0.993;entryY=0.386;entryDx=0;entryDy=0;exitPerimeter=0;entryPerimeter=0;fillColor=#008a00;strokeColor=#005700;" parent="sN5b08nfrMe0N_BmBH08-1" source="xgLqqH-70hBKpaBER36Q-35" target="xgLqqH-70hBKpaBER36Q-14" edge="1">
          <mxGeometry width="50" height="50" relative="1" as="geometry">
            <mxPoint x="800" y="340" as="sourcePoint" />
            <mxPoint x="790" y="270" as="targetPoint" />
          </mxGeometry>
        </mxCell>
        <mxCell id="xgLqqH-70hBKpaBER36Q-43" value="失败" style="edgeLabel;html=1;align=center;verticalAlign=middle;resizable=0;points=[];" parent="xgLqqH-70hBKpaBER36Q-42" vertex="1" connectable="0">
          <mxGeometry x="-0.3451" y="-3" relative="1" as="geometry">
            <mxPoint as="offset" />
          </mxGeometry>
        </mxCell>
        <mxCell id="xgLqqH-70hBKpaBER36Q-48" value="" style="endArrow=classic;html=1;rounded=0;dashed=1;dashPattern=1 2;elbow=vertical;exitX=0.982;exitY=0.776;exitDx=0;exitDy=0;exitPerimeter=0;entryX=0.006;entryY=0.089;entryDx=0;entryDy=0;entryPerimeter=0;fillColor=#008a00;strokeColor=#005700;" parent="sN5b08nfrMe0N_BmBH08-1" source="xgLqqH-70hBKpaBER36Q-17" target="xgLqqH-70hBKpaBER36Q-35" edge="1">
          <mxGeometry width="50" height="50" relative="1" as="geometry">
            <mxPoint x="870" y="260" as="sourcePoint" />
            <mxPoint x="920" y="210" as="targetPoint" />
          </mxGeometry>
        </mxCell>
        <mxCell id="xgLqqH-70hBKpaBER36Q-49" value="失败数据回传" style="edgeLabel;html=1;align=center;verticalAlign=middle;resizable=0;points=[];" parent="xgLqqH-70hBKpaBER36Q-48" vertex="1" connectable="0">
          <mxGeometry x="-0.2153" y="1" relative="1" as="geometry">
            <mxPoint as="offset" />
          </mxGeometry>
        </mxCell>
        <mxCell id="xgLqqH-70hBKpaBER36Q-50" value="&lt;font color=&quot;#000000&quot;&gt;java程序&lt;/font&gt;" style="text;html=1;strokeColor=none;fillColor=none;align=center;verticalAlign=middle;whiteSpace=wrap;rounded=0;fontColor=#EE99FF;" parent="sN5b08nfrMe0N_BmBH08-1" vertex="1">
          <mxGeometry x="530" y="300" width="60" height="30" as="geometry" />
        </mxCell>
        <mxCell id="n89y87WjXCXmDJwve2ZT-0" value="wincc" style="rounded=1;whiteSpace=wrap;html=1;" vertex="1" parent="sN5b08nfrMe0N_BmBH08-1">
          <mxGeometry x="30" y="190" width="120" height="60" as="geometry" />
        </mxCell>
        <mxCell id="n89y87WjXCXmDJwve2ZT-1" value="网关" style="rounded=0;whiteSpace=wrap;html=1;" vertex="1" parent="sN5b08nfrMe0N_BmBH08-1">
          <mxGeometry x="210" y="190" width="120" height="60" as="geometry" />
        </mxCell>
        <mxCell id="n89y87WjXCXmDJwve2ZT-2" value="" style="endArrow=classic;html=1;rounded=0;exitX=1;exitY=0.5;exitDx=0;exitDy=0;fillColor=#d80073;strokeColor=#A50040;entryX=0;entryY=0.25;entryDx=0;entryDy=0;" edge="1" parent="sN5b08nfrMe0N_BmBH08-1" source="n89y87WjXCXmDJwve2ZT-1" target="n89y87WjXCXmDJwve2ZT-11">
          <mxGeometry width="50" height="50" relative="1" as="geometry">
            <mxPoint x="340" y="80" as="sourcePoint" />
            <mxPoint x="459.99999999999955" y="210" as="targetPoint" />
          </mxGeometry>
        </mxCell>
        <mxCell id="n89y87WjXCXmDJwve2ZT-3" value="转速" style="edgeLabel;html=1;align=center;verticalAlign=middle;resizable=0;points=[];" vertex="1" connectable="0" parent="n89y87WjXCXmDJwve2ZT-2">
          <mxGeometry x="-0.1492" y="3" relative="1" as="geometry">
            <mxPoint as="offset" />
          </mxGeometry>
        </mxCell>
        <mxCell id="n89y87WjXCXmDJwve2ZT-4" value="" style="endArrow=classic;html=1;rounded=0;exitX=1;exitY=0.5;exitDx=0;exitDy=0;entryX=0;entryY=0.5;entryDx=0;entryDy=0;fillColor=#d80073;strokeColor=#A50040;" edge="1" parent="sN5b08nfrMe0N_BmBH08-1" source="n89y87WjXCXmDJwve2ZT-0" target="n89y87WjXCXmDJwve2ZT-1">
          <mxGeometry width="50" height="50" relative="1" as="geometry">
            <mxPoint x="309.9999999999998" y="49.999999999999886" as="sourcePoint" />
            <mxPoint x="480" y="205" as="targetPoint" />
          </mxGeometry>
        </mxCell>
        <mxCell id="n89y87WjXCXmDJwve2ZT-5" value="转速" style="edgeLabel;html=1;align=center;verticalAlign=middle;resizable=0;points=[];" vertex="1" connectable="0" parent="n89y87WjXCXmDJwve2ZT-4">
          <mxGeometry x="-0.1492" y="3" relative="1" as="geometry">
            <mxPoint as="offset" />
          </mxGeometry>
        </mxCell>
        <mxCell id="n89y87WjXCXmDJwve2ZT-7" value="油液" style="rounded=0;whiteSpace=wrap;html=1;" vertex="1" parent="sN5b08nfrMe0N_BmBH08-1">
          <mxGeometry x="220" y="490" width="120" height="60" as="geometry" />
        </mxCell>
        <mxCell id="n89y87WjXCXmDJwve2ZT-8" value="" style="endArrow=classic;html=1;rounded=0;exitX=1.01;exitY=0.787;exitDx=0;exitDy=0;exitPerimeter=0;fillColor=#1ba1e2;strokeColor=#006EAF;" edge="1" parent="sN5b08nfrMe0N_BmBH08-1" source="xgLqqH-70hBKpaBER36Q-0" target="n89y87WjXCXmDJwve2ZT-7">
          <mxGeometry width="50" height="50" relative="1" as="geometry">
            <mxPoint x="190" y="630" as="sourcePoint" />
            <mxPoint x="240" y="580" as="targetPoint" />
          </mxGeometry>
        </mxCell>
        <mxCell id="n89y87WjXCXmDJwve2ZT-9" value="" style="endArrow=classic;html=1;rounded=0;exitX=1;exitY=0.5;exitDx=0;exitDy=0;fillColor=#1ba1e2;strokeColor=#006EAF;entryX=0;entryY=1;entryDx=0;entryDy=0;" edge="1" parent="sN5b08nfrMe0N_BmBH08-1" source="n89y87WjXCXmDJwve2ZT-7" target="n89y87WjXCXmDJwve2ZT-11">
          <mxGeometry width="50" height="50" relative="1" as="geometry">
            <mxPoint x="450" y="550" as="sourcePoint" />
            <mxPoint x="500" y="500" as="targetPoint" />
          </mxGeometry>
        </mxCell>
        <mxCell id="n89y87WjXCXmDJwve2ZT-15" value="油液" style="edgeLabel;html=1;align=center;verticalAlign=middle;resizable=0;points=[];" vertex="1" connectable="0" parent="n89y87WjXCXmDJwve2ZT-9">
          <mxGeometry x="-0.0754" y="-3" relative="1" as="geometry">
            <mxPoint as="offset" />
          </mxGeometry>
        </mxCell>
        <mxCell id="n89y87WjXCXmDJwve2ZT-11" value="队列" style="rounded=1;whiteSpace=wrap;html=1;" vertex="1" parent="sN5b08nfrMe0N_BmBH08-1">
          <mxGeometry x="560" y="360" width="90" height="15" as="geometry" />
        </mxCell>
        <mxCell id="n89y87WjXCXmDJwve2ZT-12" value="" style="endArrow=classic;html=1;rounded=0;elbow=vertical;dashed=1;dashPattern=1 2;entryX=0.231;entryY=0.971;entryDx=0;entryDy=0;entryPerimeter=0;fillColor=#008a00;strokeColor=#005700;" edge="1" parent="sN5b08nfrMe0N_BmBH08-1" target="xgLqqH-70hBKpaBER36Q-17">
          <mxGeometry width="50" height="50" relative="1" as="geometry">
            <mxPoint x="680" y="340" as="sourcePoint" />
            <mxPoint x="688.74" y="354.03999999999996" as="targetPoint" />
          </mxGeometry>
        </mxCell>
        <mxCell id="n89y87WjXCXmDJwve2ZT-13" value="失败" style="edgeLabel;html=1;align=center;verticalAlign=middle;resizable=0;points=[];" vertex="1" connectable="0" parent="n89y87WjXCXmDJwve2ZT-12">
          <mxGeometry x="-0.3451" y="-3" relative="1" as="geometry">
            <mxPoint as="offset" />
          </mxGeometry>
        </mxCell>
        <mxCell id="n89y87WjXCXmDJwve2ZT-16" value="" style="endArrow=classic;html=1;rounded=0;entryX=0;entryY=1;entryDx=0;entryDy=-15;entryPerimeter=0;exitX=0.444;exitY=0;exitDx=0;exitDy=0;exitPerimeter=0;dashed=1;textOpacity=50;" edge="1" parent="sN5b08nfrMe0N_BmBH08-1" source="n89y87WjXCXmDJwve2ZT-11" target="xgLqqH-70hBKpaBER36Q-17">
          <mxGeometry width="50" height="50" relative="1" as="geometry">
            <mxPoint x="600" y="260" as="sourcePoint" />
            <mxPoint x="650" y="210" as="targetPoint" />
          </mxGeometry>
        </mxCell>
        <mxCell id="n89y87WjXCXmDJwve2ZT-18" value="当队列堆积量大于1000条, &#xa;直接写入mongod" style="text;strokeColor=none;fillColor=none;align=center;verticalAlign=middle;spacingLeft=4;spacingRight=4;overflow=hidden;points=[[0,0.5],[1,0.5]];portConstraint=eastwest;rotatable=0;strokeWidth=1;fontFamily=Courier New;textOpacity=40;" vertex="1" parent="sN5b08nfrMe0N_BmBH08-1">
          <mxGeometry x="500" y="220" width="210" height="60" as="geometry" />
        </mxCell>
        <mxCell id="n89y87WjXCXmDJwve2ZT-19" value="整线" style="text;strokeColor=none;fillColor=none;align=center;verticalAlign=middle;spacingLeft=4;spacingRight=4;overflow=hidden;points=[[0,0.5],[1,0.5]];portConstraint=eastwest;rotatable=0;" vertex="1" parent="sN5b08nfrMe0N_BmBH08-1">
          <mxGeometry x="50" y="290" width="80" height="30" as="geometry" />
        </mxCell>
      </root>
    </mxGraphModel>
  </diagram>
</mxfile>
